<svg xmlns="http://www.w3.org/2000/svg" version="1.1" xmlns:xlink="http://www.w3.org/1999/xlink" xmlns:svgjs="http://svgjs.com/svgjs" width="48.06" height="54.701"><svg width="48.06" height="54.701" viewBox="0 0 48.06 54.701" xmlns="http://www.w3.org/2000/svg"><g id="SvgjsG1000" stroke-linecap="round" fill-rule="nonzero" font-size="9pt" stroke="#facc15" stroke-width="0.25mm" fill="#facc15" style="stroke:#facc15;stroke-width:0.25mm;fill:#facc15"><path d="M 39.909 53.1 L 22.409 32.1 L 18.809 28.5 L 1.409 7.9 A 6.538 6.538 0 0 1 0.409 6.239 A 5.513 5.513 0 0 1 0.009 4.45 A 5.642 5.642 0 0 1 0 4.146 Q 0 2.492 1.009 1.3 A 3.504 3.504 0 0 1 2.812 0.184 Q 3.397 0.024 4.101 0.003 A 7.186 7.186 0 0 1 4.309 0 A 5.462 5.462 0 0 1 6.031 0.26 A 4.467 4.467 0 0 1 8.109 1.7 L 25.209 22.1 L 27.809 24.5 L 46.609 47 A 7.651 7.651 0 0 1 47.431 48.186 Q 48.06 49.322 48.06 50.437 A 3.955 3.955 0 0 1 48.059 50.55 A 4.101 4.101 0 0 1 46.768 53.491 A 4.865 4.865 0 0 1 46.759 53.5 A 4.241 4.241 0 0 1 44.405 54.634 A 5.879 5.879 0 0 1 43.509 54.7 Q 42.509 54.7 41.609 54.4 Q 40.709 54.1 39.909 53.1 Z M 45.809 8.3 L 30.009 29 L 23.109 23.1 L 39.209 1.7 A 5.586 5.586 0 0 1 39.823 1.042 Q 40.195 0.706 40.587 0.498 A 3.041 3.041 0 0 1 40.909 0.35 A 5.148 5.148 0 0 1 42.241 0.034 A 6.37 6.37 0 0 1 42.909 0 A 5.689 5.689 0 0 1 44.205 0.139 Q 45.461 0.433 46.209 1.35 A 4.671 4.671 0 0 1 47.254 4.159 Q 47.261 4.296 47.261 4.436 A 6.241 6.241 0 0 1 47.259 4.6 A 5.674 5.674 0 0 1 46.612 7.051 A 7.857 7.857 0 0 1 45.809 8.3 Z M 2.409 46.8 L 19.409 25.5 L 24.809 33.1 L 8.909 53.1 A 5.132 5.132 0 0 1 7.329 54.268 A 4.733 4.733 0 0 1 5.309 54.7 A 6.359 6.359 0 0 1 5.277 54.7 Q 4.54 54.697 3.918 54.522 A 3.706 3.706 0 0 1 2.159 53.45 A 4.319 4.319 0 0 1 1.01 50.512 A 5.557 5.557 0 0 1 1.009 50.4 A 5.038 5.038 0 0 1 1.476 48.319 Q 1.775 47.655 2.265 46.99 A 9.136 9.136 0 0 1 2.409 46.8 Z" vector-effect="non-scaling-stroke"></path></g></svg><style>@media (prefers-color-scheme: light) { :root { filter: none; } }
</style></svg>